Coordinates
version=1
nRows=11
nColumns=46
inDegrees=yes

Units are S.I. units (second, meters, Newtons, ...)
Angles are in degrees.

endheader
time	pelvis_tilt	pelvis_list	pelvis_rotation	pelvis_tx	pelvis_ty	pelvis_tz	bb_angle	bb_tx	bb_ty	bb_tz	hip_flexion_r	hip_adduction_r	hip_rotation_r	knee_angle_r	knee_angle_r_beta	ankle_angle_r	subtalar_angle_r	mtp_angle_r	crank_angle_r	hip_flexion_l	hip_adduction_l	hip_rotation_l	knee_angle_l	knee_angle_l_beta	ankle_angle_l	subtalar_angle_l	mtp_angle_l	crank_angle_l	lumbar_extension	lumbar_bending	lumbar_rotation	arm_flex_r	arm_add_r	arm_rot_r	elbow_flex_r	pro_sup_r	wrist_flex_r	wrist_dev_r	arm_flex_l	arm_add_l	arm_rot_l	elbow_flex_l	pro_sup_l	wrist_flex_l	wrist_dev_l
      2.50000000	    -17.42164157	     -2.99797370	     -2.08102264	      0.12757477	      1.14811175	     -0.24928726	      0.00000000	      0.50000000	      0.00000000	      0.25000000	     75.43349786	     -7.54228030	     -5.83515348	     99.55105041	      1.73749360	    -14.31427259	     -4.60385632	      0.00000000	      0.00000000	     58.04784122	     -5.30136835	      8.08920485	     48.43814071	      0.84540504	     14.73215986	    -11.16002525	      0.00000000	      0.00000000	    -61.74547884	     -2.18010015	      7.67332094	     89.71876251	    -14.82530665	     22.30282479	     54.98114740	     27.64339115	      0.00000000	      0.00000000	     88.84433456	      2.85984701	     14.37524478	     52.85481285	     28.19908669	      0.00000000	      0.00000000
      2.50500000	    -17.71889095	     -3.39046321	     -2.18526628	      0.12947788	      1.14765194	     -0.24942862	      0.00000000	      0.50000000	      0.00000000	      0.25000000	     76.16344607	     -7.56313971	     -6.25121652	    100.26423944	      1.74994110	    -14.19531273	     -4.52181910	      0.00000000	      0.00000000	     57.32257544	     -5.62345844	      8.33896702	     47.14033650	      0.82275408	     14.75609211	    -11.15635060	      0.00000000	      0.00000000	    -61.63654020	     -1.87757583	      8.08041583	     89.71282347	    -14.80636392	     22.32146914	     55.29135786	     27.69405608	      0.00000000	      0.00000000	     88.57516014	      2.91022009	     14.10414227	     53.14232040	     28.26858036	      0.00000000	      0.00000000
      2.51000000	    -17.80547332	     -3.73453939	     -2.12957224	      0.13132265	      1.14771930	     -0.24998046	      0.00000000	      0.50000000	      0.00000000	      0.25000000	     76.64658768	     -7.79384749	     -6.64927660	    100.97519853	      1.76234968	    -13.92417905	     -4.18248247	      0.00000000	      0.00000000	     56.32937171	     -5.68912315	      8.75859409	     45.72166068	      0.79799352	     14.23987323	    -12.09501502	      0.00000000	      0.00000000	    -61.96250679	     -1.52745235	      8.32557082	     89.70297774	    -15.17806617	     22.32198658	     56.63473563	     27.87691411	      0.00000000	      0.00000000	     88.03450878	      3.41761105	     12.29170389	     54.87976069	     28.68275343	      0.00000000	      0.00000000
      2.51500000	    -18.11578919	     -4.12139848	     -2.28034516	      0.13311001	      1.14726856	     -0.24978605	      0.00000000	      0.50000000	      0.00000000	      0.25000000	     77.40571974	     -7.67786538	     -6.98136135	    101.64014145	      1.77395512	    -13.86355313	     -4.15344798	      0.00000000	      0.00000000	     55.65325982	     -6.11379570	      8.87106550	     44.49106356	      0.77651555	     14.29209992	    -11.91727582	      0.00000000	      0.00000000	    -61.82190728	     -1.22986405	      8.78393861	     89.70344574	    -15.03700094	     22.37116588	     56.78697805	     27.89610354	      0.00000000	      0.00000000	     87.82868597	      3.43381668	     12.10222008	     55.00058681	     28.72216996	      0.00000000	      0.00000000
      2.52000000	    -18.36763126	     -4.50443271	     -2.38858132	      0.13490149	      1.14702972	     -0.24975896	      0.00000000	      0.50000000	      0.00000000	      0.25000000	     78.09693304	     -7.65420241	     -7.38452703	    102.27053350	      1.78495754	    -13.77131777	     -4.21567356	      0.00000000	      0.00000000	     54.90966295	     -6.49521565	      9.00988525	     43.24577350	      0.75478114	     14.20881301	    -11.79232939	      0.00000000	      0.00000000	    -61.70187899	     -0.90598385	      9.20191693	     89.69888322	    -14.88759053	     22.42570085	     56.95403748	     27.92233970	      0.00000000	      0.00000000	     87.52980740	      3.46653975	     11.84810683	     55.22591490	     28.78262911	      0.00000000	      0.00000000
      2.52500000	    -18.61102595	     -4.89486960	     -2.49802029	      0.13663283	      1.14699540	     -0.24973576	      0.00000000	      0.50000000	      0.00000000	      0.25000000	     78.74213433	     -7.60164390	     -7.77908815	    102.83649397	      1.79483541	    -13.67875238	     -4.25039172	      0.00000000	      0.00000000	     54.15078177	     -6.89544538	      9.13642651	     41.96637649	      0.73245144	     14.03329729	    -11.73792994	      0.00000000	      0.00000000	    -61.61809827	     -0.54501496	      9.63653434	     89.70263691	    -14.70100229	     22.48928171	     57.15569266	     27.95958743	      0.00000000	      0.00000000	     87.20079640	      3.48564870	     11.53121765	     55.53025827	     28.86064444	      0.00000000	      0.00000000
      2.53000000	    -18.57957650	     -5.16983794	     -2.43547762	      0.13828204	      1.14766550	     -0.24992503	      0.00000000	      0.50000000	      0.00000000	      0.25000000	     79.11828030	     -7.76269829	     -8.11010930	    103.41318256	      1.80490053	    -13.65910857	     -4.33699332	      0.00000000	      0.00000000	     53.01122579	     -7.00507182	      9.44189680	     40.49088782	      0.70669931	     13.29928155	    -12.55039264	      0.00000000	      0.00000000	    -61.90406641	     -0.15295944	      9.53969239	     89.70343364	    -14.21519903	     22.54615017	     57.73638162	     28.00729645	      0.00000000	      0.00000000	     86.44090270	      3.52342469	      9.77447354	     57.32435042	     29.34089140	      0.00000000	      0.00000000
      2.53500000	    -18.86300814	     -5.51511061	     -2.56568899	      0.13987173	      1.14744689	     -0.24996288	      0.00000000	      0.50000000	      0.00000000	      0.25000000	     79.88008832	     -7.72200732	     -8.42843906	    103.99041569	      1.81497514	    -13.60116791	     -4.31590784	      0.00000000	      0.00000000	     52.40321674	     -7.41533733	      9.36892779	     39.40138744	      0.68768394	     13.10517583	    -12.30691229	      0.00000000	      0.00000000	    -61.73004660	      0.22618204	     10.02761024	     89.70672903	    -13.96565987	     22.61190364	     57.83422784	     28.01825326	      0.00000000	      0.00000000	     86.28745193	      3.41563303	      9.68205381	     57.34984806	     29.36942458	      0.00000000	      0.00000000
      2.54000000	    -19.05976745	     -5.88960177	     -2.67779310	      0.14162081	      1.14783626	     -0.24999315	      0.00000000	      0.50000000	      0.00000000	      0.25000000	     80.48003919	     -7.68222597	     -8.80721741	    104.46809823	      1.82331228	    -13.56475232	     -4.26552457	      0.00000000	      0.00000000	     51.59322319	     -7.80878664	      9.45888677	     38.10891301	      0.66512601	     12.52456536	    -12.50009547	      0.00000000	      0.00000000	    -61.65760587	      0.65960065	      9.95417310	     89.71080805	    -12.80084920	     22.44767927	     57.61428615	     27.79014343	      0.00000000	      0.00000000	     85.61435996	      2.66195536	      9.26179741	     58.31815094	     30.12587221	      0.00000000	      0.00000000
      2.54500000	    -19.27009792	     -6.22422855	     -2.78117002	      0.14309458	      1.14808448	     -0.24998295	      0.00000000	      0.50000000	      0.00000000	      0.25000000	     81.14985508	     -7.61957222	     -9.09748649	    104.94718102	      1.83167385	    -13.56325696	     -4.25250478	      0.00000000	      0.00000000	     50.92985012	     -8.22054996	      9.34669193	     37.05019288	      0.64664785	     12.18258079	    -12.22209925	      0.00000000	      0.00000000	    -61.55416461	      1.03945222	     10.35255723	     89.71180139	    -12.54293648	     22.55000815	     57.70079747	     27.80358085	      0.00000000	      0.00000000	     85.53127509	      2.48698542	      9.24364792	     58.25930604	     30.15376356	      0.00000000	      0.00000000
      2.55000000	    -19.45699225	     -6.53074810	     -2.87485162	      0.14468809	      1.14850215	     -0.24998944	      0.00000000	      0.50000000	      0.00000000	      0.25000000	     81.78719152	     -7.58935415	     -9.38426344	    105.41149056	      1.83977758	    -13.56870395	     -4.24945578	      0.00000000	      0.00000000	     50.25531011	     -8.61326403	      9.16345456	     36.02380445	      0.62873400	     11.72895592	    -11.95505917	      0.00000000	      0.00000000	    -61.49060588	      1.43698285	     10.71687063	     89.71347158	    -12.24316335	     22.66069168	     57.77577162	     27.81392497	      0.00000000	      0.00000000	     85.45570891	      2.23949294	      9.23165297	     58.19649254	     30.17401384	      0.00000000	      0.00000000
